<?xml version="1.0" standalone="no"?>
<!DOCTYPE svg PUBLIC "-//W3C//DTD SVG 20010904//EN"
 "http://www.w3.org/TR/2001/REC-SVG-20010904/DTD/svg10.dtd">
<svg version="1.0" xmlns="http://www.w3.org/2000/svg"
 width="260.000000pt" height="260.000000pt" viewBox="0 0 260.000000 260.000000"
 preserveAspectRatio="xMidYMid meet">
<metadata>
Created by potrace 1.11, written by Peter Selinger 2001-2013
</metadata>
<g transform="translate(0.000000,260.000000) scale(0.100000,-0.100000)"
fill="#000000" stroke="none">
<path d="M260 1331 l0 -421 55 0 55 0 0 180 0 180 78 0 c100 0 145 -13 177
-52 15 -17 58 -94 96 -170 l69 -138 115 0 115 0 2 362 3 362 105 -280 106
-279 59 0 59 0 106 279 105 280 3 -362 2 -362 55 0 55 0 0 375 0 375 125 0
125 0 0 -375 0 -375 55 0 55 0 0 375 0 375 150 0 150 0 0 45 0 45 -414 0 -414
0 -32 -82 c-17 -46 -66 -175 -108 -286 -56 -150 -78 -199 -84 -185 -5 10 -53
137 -107 283 l-99 265 -86 3 -86 3 -1 -418 0 -418 -72 145 c-76 154 -124 224
-159 236 -20 6 -19 8 14 25 118 60 147 242 55 346 -59 67 -98 77 -304 81
l-183 4 0 -421z m357 304 c86 -51 83 -195 -3 -252 -21 -14 -53 -19 -136 -22
l-108 -3 0 152 0 152 108 -4 c83 -3 114 -8 139 -23z"/>
</g>
</svg>
